<svg width="42" height="42" viewBox="0 0 42 42" fill="none" xmlns="http://www.w3.org/2000/svg">
<circle cx="20.5414" cy="21.1943" r="20.5137" fill="black"/>
<path d="M26.1984 21.7436C26.2087 20.9486 26.4199 20.1691 26.8123 19.4776C27.2048 18.7861 27.7658 18.2051 28.4431 17.7887C28.0128 17.1742 27.4452 16.6685 26.7852 16.3117C26.1253 15.9549 25.3913 15.757 24.6415 15.7335C23.042 15.5656 21.4913 16.6906 20.6763 16.6906C19.8454 16.6906 18.5905 15.7502 17.2391 15.778C16.3651 15.8062 15.5132 16.0604 14.7665 16.5158C14.0199 16.9711 13.4039 17.6121 12.9787 18.3763C11.1365 21.5657 12.5106 26.253 14.2752 28.8311C15.1581 30.0935 16.1899 31.5037 17.5401 31.4536C18.8612 31.3988 19.3547 30.6112 20.9495 30.6112C22.5294 30.6112 22.9924 31.4536 24.3699 31.4218C25.7876 31.3988 26.6808 30.1538 27.5327 28.8795C28.1671 27.98 28.6552 26.9858 28.979 25.9338C28.1554 25.5855 27.4525 25.0024 26.9581 24.2572C26.4636 23.5121 26.1994 22.6379 26.1984 21.7436Z" fill="white"/>
<path d="M23.5965 14.2585C24.3695 13.3306 24.7503 12.1378 24.6581 10.9337C23.4772 11.0577 22.3863 11.6221 21.6029 12.5144C21.2198 12.9504 20.9265 13.4575 20.7395 14.0069C20.5526 14.5563 20.4758 15.1371 20.5135 15.7162C21.1042 15.7223 21.6885 15.5942 22.2226 15.3418C22.7566 15.0893 23.2264 14.7189 23.5965 14.2585Z" fill="white"/>
</svg>
