<svg width="137" height="28" viewBox="0 0 137 28" fill="none" xmlns="http://www.w3.org/2000/svg">
<path d="M12.7683 1.71411H10.8574C10.8574 1.71411 5.18792 1.71411 4.1727 7.31292L2.84065 14.7933C1.86279 20.4215 7.53166 20.4215 7.53166 20.4215H11.3285L10.9647 22.311C10.9647 22.311 10.6415 24.1622 8.76064 24.1622H2.30028L0.179688 27.9003H8.07418C8.07418 27.9003 13.7415 27.9003 14.7487 22.3115L18.4239 1.71411H12.7683ZM13.6288 7.31292L11.9723 16.6776H8.17822C8.17822 16.6776 6.30679 16.6776 6.63105 14.7933L7.96309 7.31292C7.96309 7.31292 8.3204 5.45199 10.1979 5.45199H12.113C12.113 5.45199 13.9932 5.45276 13.6288 7.3135V7.31292ZM53.0266 1.71411H51.1129L48.4562 16.66C45.5463 16.5025 46.1268 14.7939 46.1268 14.7939L48.4768 1.71411H40.8981C35.1952 1.71411 34.188 7.31292 34.188 7.31292L32.8484 14.7933C32.7358 15.4028 32.7094 16.0247 32.7701 16.6413C30.0558 16.3955 30.322 14.7933 30.322 14.7933L32.6639 1.71353H25.0845C19.3849 1.71353 18.3764 7.31234 18.3764 7.31234L17.0398 14.7927C16.0565 20.4209 21.7727 20.4209 21.7727 20.4209H23.6474C25.0474 20.4209 26.2378 19.3548 26.9998 18.3516C28.4008 20.9348 32.4003 20.4209 32.4003 20.4209L33.0113 17.6398C34.0249 20.4103 37.5799 20.4209 37.5799 20.4209H39.4519C40.8649 20.4209 42.0579 19.3548 42.8134 18.3516C43.8566 20.0284 45.2545 20.3539 47.7872 20.406V20.4209H51.576L53.8812 7.34844C53.8812 7.34844 54.2483 5.45141 56.1624 5.45141H58.0348C58.0348 5.45141 59.9514 5.45141 59.5918 7.34844L57.278 20.4209H61.0668L63.4103 7.2357C64.39 1.64268 58.6898 1.71293 58.6898 1.71293H53.0266V1.71411ZM26.5327 14.7939C26.5327 14.7939 26.2057 16.6782 24.2868 16.6782H22.4104C22.4104 16.6782 20.5028 16.6782 20.8288 14.7939L22.1625 7.3135C22.1625 7.3135 22.5225 5.45257 24.4329 5.45257H28.225L26.5327 14.7939ZM42.3385 14.7939C42.3385 14.7939 42.0211 16.6782 40.1065 16.6782H38.2301C38.2301 16.6782 36.3135 16.6782 36.639 14.7939L37.979 7.3135C37.979 7.3135 38.3363 5.45257 40.2504 5.45257H44.0367L42.3385 14.7939ZM76.0944 14.7939L78.4374 1.71411H70.863C65.1568 1.71411 64.1437 7.31292 64.1437 7.31292L62.8203 14.7933C61.8346 20.4215 67.5418 20.4215 67.5418 20.4215H69.423C70.8311 20.4215 72.0204 19.3554 72.7814 18.3522C74.0763 20.4215 77.0046 20.4215 77.0046 20.4215L77.6517 16.6776C75.7709 16.6782 76.0944 14.7939 76.0944 14.7939ZM72.3062 14.7939C72.3062 14.7939 71.985 16.6782 70.0686 16.6782H68.1911C68.1911 16.6782 66.2764 16.6782 66.6025 14.7939L67.9502 7.3135C67.9502 7.3135 68.3037 5.45257 70.2145 5.45257H73.9973L72.3062 14.7939Z" fill="#EC2224"/>
<path d="M101.606 6.71289V2.39289H103.352C103.394 2.39289 103.446 2.39489 103.508 2.39889C103.57 2.40089 103.629 2.40689 103.685 2.41689C103.925 2.45489 104.125 2.53689 104.285 2.66289C104.447 2.78889 104.568 2.94789 104.648 3.13989C104.728 3.33189 104.768 3.54389 104.768 3.77589C104.768 4.00989 104.728 4.22289 104.648 4.41489C104.568 4.60689 104.447 4.76589 104.285 4.89189C104.125 5.01789 103.925 5.09989 103.685 5.13789C103.629 5.14589 103.569 5.15189 103.505 5.15589C103.443 5.15989 103.392 5.16189 103.352 5.16189H102.233V6.71289H101.606ZM102.233 4.56789H103.328C103.368 4.56789 103.412 4.56589 103.46 4.56189C103.51 4.55789 103.557 4.55089 103.601 4.54089C103.729 4.51089 103.832 4.45589 103.91 4.37589C103.988 4.29389 104.044 4.19989 104.078 4.09389C104.112 3.98789 104.129 3.88189 104.129 3.77589C104.129 3.66989 104.112 3.56489 104.078 3.46089C104.044 3.35489 103.988 3.26189 103.91 3.18189C103.832 3.09989 103.729 3.04389 103.601 3.01389C103.557 3.00189 103.51 2.99389 103.46 2.98989C103.412 2.98589 103.368 2.98389 103.328 2.98389H102.233V4.56789ZM106.733 6.80289C106.409 6.80289 106.128 6.72989 105.89 6.58389C105.652 6.43789 105.468 6.23689 105.338 5.98089C105.21 5.72289 105.146 5.42589 105.146 5.08989C105.146 4.75189 105.212 4.45489 105.344 4.19889C105.476 3.94089 105.661 3.74089 105.899 3.59889C106.137 3.45489 106.415 3.38289 106.733 3.38289C107.057 3.38289 107.338 3.45589 107.576 3.60189C107.814 3.74789 107.998 3.94889 108.128 4.20489C108.258 4.46089 108.323 4.75589 108.323 5.08989C108.323 5.42789 108.257 5.72589 108.125 5.98389C107.995 6.23989 107.811 6.44089 107.573 6.58689C107.335 6.73089 107.055 6.80289 106.733 6.80289ZM106.733 6.21189C107.043 6.21189 107.274 6.10789 107.426 5.89989C107.58 5.68989 107.657 5.41989 107.657 5.08989C107.657 4.75189 107.579 4.48189 107.423 4.27989C107.269 4.07589 107.039 3.97389 106.733 3.97389C106.523 3.97389 106.35 4.02189 106.214 4.11789C106.078 4.21189 105.977 4.34289 105.911 4.51089C105.845 4.67689 105.812 4.86989 105.812 5.08989C105.812 5.42989 105.89 5.70189 106.046 5.90589C106.202 6.10989 106.431 6.21189 106.733 6.21189ZM109.555 6.71289L108.565 3.46989L109.186 3.47289L109.864 5.69589L110.548 3.47289H111.088L111.772 5.69589L112.45 3.47289H113.068L112.078 6.71289H111.574L110.818 4.36689L110.059 6.71289H109.555ZM114.925 6.80289C114.603 6.80289 114.32 6.73289 114.076 6.59289C113.834 6.45089 113.645 6.25389 113.509 6.00189C113.375 5.74789 113.308 5.45389 113.308 5.11989C113.308 4.76589 113.374 4.45889 113.506 4.19889C113.64 3.93889 113.826 3.73789 114.064 3.59589C114.302 3.45389 114.579 3.38289 114.895 3.38289C115.225 3.38289 115.506 3.45989 115.738 3.61389C115.97 3.76589 116.143 3.98289 116.257 4.26489C116.373 4.54689 116.419 4.88189 116.395 5.26989H115.768V5.04189C115.764 4.66589 115.692 4.38789 115.552 4.20789C115.414 4.02789 115.203 3.93789 114.919 3.93789C114.605 3.93789 114.369 4.03689 114.211 4.23489C114.053 4.43289 113.974 4.71889 113.974 5.09289C113.974 5.44889 114.053 5.72489 114.211 5.92089C114.369 6.11489 114.597 6.21189 114.895 6.21189C115.091 6.21189 115.26 6.16789 115.402 6.07989C115.546 5.98989 115.658 5.86189 115.738 5.69589L116.353 5.89089C116.227 6.18089 116.036 6.40589 115.78 6.56589C115.524 6.72389 115.239 6.80289 114.925 6.80289ZM113.77 5.26989V4.78089H116.083V5.26989H113.77ZM117.068 6.71289V3.47289H117.626V4.25889L117.548 4.15689C117.588 4.05289 117.64 3.95789 117.704 3.87189C117.768 3.78389 117.842 3.71189 117.926 3.65589C118.008 3.59589 118.099 3.54989 118.199 3.51789C118.301 3.48389 118.405 3.46389 118.511 3.45789C118.617 3.44989 118.719 3.45489 118.817 3.47289V4.06089C118.711 4.03289 118.593 4.02489 118.463 4.03689C118.335 4.04889 118.217 4.08989 118.109 4.15989C118.007 4.22589 117.926 4.30589 117.866 4.39989C117.808 4.49389 117.766 4.59889 117.74 4.71489C117.714 4.82889 117.701 4.94989 117.701 5.07789V6.71289H117.068ZM120.767 6.80289C120.445 6.80289 120.162 6.73289 119.918 6.59289C119.676 6.45089 119.487 6.25389 119.351 6.00189C119.217 5.74789 119.15 5.45389 119.15 5.11989C119.15 4.76589 119.216 4.45889 119.348 4.19889C119.482 3.93889 119.668 3.73789 119.906 3.59589C120.144 3.45389 120.421 3.38289 120.737 3.38289C121.067 3.38289 121.348 3.45989 121.58 3.61389C121.812 3.76589 121.985 3.98289 122.099 4.26489C122.215 4.54689 122.261 4.88189 122.237 5.26989H121.61V5.04189C121.606 4.66589 121.534 4.38789 121.394 4.20789C121.256 4.02789 121.045 3.93789 120.761 3.93789C120.447 3.93789 120.211 4.03689 120.053 4.23489C119.895 4.43289 119.816 4.71889 119.816 5.09289C119.816 5.44889 119.895 5.72489 120.053 5.92089C120.211 6.11489 120.439 6.21189 120.737 6.21189C120.933 6.21189 121.102 6.16789 121.244 6.07989C121.388 5.98989 121.5 5.86189 121.58 5.69589L122.195 5.89089C122.069 6.18089 121.878 6.40589 121.622 6.56589C121.366 6.72389 121.081 6.80289 120.767 6.80289ZM119.612 5.26989V4.78089H121.925V5.26989H119.612ZM124.197 6.80289C123.895 6.80289 123.634 6.72789 123.414 6.57789C123.196 6.42789 123.027 6.22389 122.907 5.96589C122.789 5.70589 122.73 5.41389 122.73 5.08989C122.73 4.76389 122.79 4.47289 122.91 4.21689C123.03 3.95889 123.2 3.75589 123.42 3.60789C123.642 3.45789 123.905 3.38289 124.209 3.38289C124.515 3.38289 124.772 3.45789 124.98 3.60789C125.19 3.75589 125.348 3.95889 125.454 4.21689C125.562 4.47489 125.616 4.76589 125.616 5.08989C125.616 5.41389 125.562 5.70489 125.454 5.96289C125.346 6.22089 125.187 6.42589 124.977 6.57789C124.767 6.72789 124.507 6.80289 124.197 6.80289ZM124.284 6.23589C124.49 6.23589 124.658 6.18689 124.788 6.08889C124.918 5.99089 125.013 5.85589 125.073 5.68389C125.133 5.51189 125.163 5.31389 125.163 5.08989C125.163 4.86589 125.132 4.66789 125.07 4.49589C125.01 4.32389 124.916 4.18989 124.788 4.09389C124.662 3.99789 124.501 3.94989 124.305 3.94989C124.097 3.94989 123.926 4.00089 123.792 4.10289C123.658 4.20489 123.558 4.34189 123.492 4.51389C123.428 4.68589 123.396 4.87789 123.396 5.08989C123.396 5.30389 123.428 5.49789 123.492 5.67189C123.558 5.84389 123.656 5.98089 123.786 6.08289C123.918 6.18489 124.084 6.23589 124.284 6.23589ZM125.163 6.71289V4.38189H125.091V2.39289H125.721V6.71289H125.163ZM127.762 6.71289V2.39289H129.46C129.734 2.39289 129.964 2.44889 130.15 2.56089C130.336 2.67289 130.476 2.81789 130.57 2.99589C130.664 3.17189 130.711 3.35789 130.711 3.55389C130.711 3.79189 130.652 3.99589 130.534 4.16589C130.418 4.33589 130.261 4.45189 130.063 4.51389L130.057 4.36689C130.333 4.43489 130.545 4.56789 130.693 4.76589C130.841 4.96189 130.915 5.19089 130.915 5.45289C130.915 5.70689 130.864 5.92789 130.762 6.11589C130.662 6.30389 130.515 6.45089 130.321 6.55689C130.129 6.66089 129.896 6.71289 129.622 6.71289H127.762ZM128.398 6.11589H129.526C129.668 6.11589 129.795 6.08889 129.907 6.03489C130.021 5.98089 130.11 5.90389 130.174 5.80389C130.24 5.70189 130.273 5.58089 130.273 5.44089C130.273 5.31089 130.244 5.19389 130.186 5.08989C130.13 4.98389 130.048 4.90089 129.94 4.84089C129.834 4.77889 129.709 4.74789 129.565 4.74789H128.398V6.11589ZM128.398 4.15689H129.451C129.567 4.15689 129.671 4.13389 129.763 4.08789C129.857 4.03989 129.931 3.97189 129.985 3.88389C130.041 3.79389 130.069 3.68589 130.069 3.55989C130.069 3.39189 130.013 3.25389 129.901 3.14589C129.789 3.03789 129.639 2.98389 129.451 2.98389H128.398V4.15689ZM131.95 8.15289L132.577 6.44589L132.586 6.94989L131.173 3.47289H131.827L132.883 6.15789H132.691L133.699 3.47289H134.335L132.547 8.15289H131.95Z" fill="black" fill-opacity="0.6"/>
<path d="M84.1914 21.1938L87.446 1.66602" stroke="black" stroke-opacity="0.2" stroke-width="0.5"/>
<path d="M97.3582 8.81178C96.5585 8.21385 95.6877 8.40416 95.3799 8.4946C95.0722 8.58504 94.7257 8.80032 94.4849 9.00591C94.2442 9.21151 94.0533 9.52207 93.9308 9.82983C93.8765 9.98549 93.4844 11.2901 94.6057 12.0532C94.7371 12.1426 95.3488 12.4134 95.5078 12.4297C95.6668 12.446 95.8415 12.4605 95.9977 12.4366C96.3101 12.3897 96.6614 12.2527 96.9149 12.0603C97.1684 11.868 97.405 11.6043 97.498 11.2988C97.5454 11.1459 97.5971 10.8657 97.5999 10.7098C97.6089 10.1519 97.4264 9.88231 97.3426 9.74805C97.2588 9.61379 96.9192 9.09228 96.0627 8.99037C95.5763 8.93254 95.4084 9.05992 95.12 9.23928C94.7086 9.49405 94.3621 10.0586 94.5106 10.6466C94.5494 10.8023 94.6042 10.9535 94.6742 11.0978C94.6742 11.0978 94.9922 11.5273 95.1837 11.6305C95.3588 11.7548 95.6301 11.7811 95.8612 11.7811C96.4532 11.7811 97.0423 11.2094 97.0423 10.6173C97.0423 9.9167 96.4879 9.48844 95.8958 9.48844C95.3037 9.48844 94.7937 9.99848 94.7937 10.5906C94.7937 10.7685 94.8381 10.9436 94.9229 11.1001C94.8931 11.0627 94.8656 11.0237 94.8403 10.9832C94.7096 10.7195 94.6548 10.4138 94.7206 10.1297C94.7544 9.9877 94.8156 9.85366 94.9007 9.73505C94.987 9.61698 95.0938 9.5154 95.2161 9.43519C95.4618 9.27348 95.755 9.19975 96.0479 9.22603C96.3378 9.24998 96.6127 9.38526 96.8341 9.57379C97.0563 9.76406 97.2125 10.0199 97.2802 10.3045C97.3135 10.4463 97.3287 10.5919 97.3253 10.7376C97.324 10.8824 97.301 11.0262 97.2573 11.1643C97.166 11.4396 96.9903 11.6791 96.7551 11.8488C96.5215 12.0235 96.2459 12.1334 95.9562 12.1676C95.4747 12.2208 95.1598 12.0565 95.1295 12.042C94.8747 11.9217 94.6199 11.7599 94.4459 11.5324C94.2693 11.3054 94.157 11.0351 94.1206 10.7498C94.0852 10.468 94.1316 10.1722 94.2276 9.90651C94.3323 9.65124 94.5262 9.42144 94.7445 9.23622C94.964 9.04978 95.2205 8.91206 95.4971 8.83216C95.7709 8.75422 96.0598 8.74547 96.3378 8.80669C96.4773 8.83865 96.6132 8.88466 96.7434 8.94401C96.8732 9.0036 96.9973 9.07471 97.1144 9.15648C98.1222 9.85148 97.8152 11.0323 97.6881 11.4346C97.6022 11.7064 97.4588 11.9006 97.2318 12.1273C97.0331 12.326 96.8553 12.404 96.5936 12.5044C96.332 12.6047 96.053 12.6847 95.7784 12.6786C95.6395 12.6763 95.5091 12.6883 95.3669 12.6547C95.2274 12.6218 95.0906 12.5785 94.9575 12.5253C94.6954 12.4163 94.4552 12.2609 94.2482 12.0667C94.0411 11.8784 93.623 11.1916 93.6113 10.6596C93.6004 10.1017 93.7642 9.60589 94.0954 9.15393C94.252 8.93662 94.4471 8.74992 94.6711 8.60313C94.899 8.44693 95.1524 8.33174 95.4199 8.26276C96.3809 8.02812 97.213 8.4974 97.213 8.4974L97.3987 7.98532L97.1905 7.91704C96.8865 7.8162 96.5716 7.75147 96.2525 7.72419C95.9281 7.69637 95.6014 7.72001 95.2844 7.79425C94.9646 7.87032 94.6614 8.00386 94.3894 8.18837C94.1194 8.37309 93.8839 8.60386 93.6939 8.87012C93.3176 9.39902 93.113 10.0497 93.1561 10.7049C93.1617 10.7867 93.1718 10.8681 93.1861 10.9488L93.2088 11.0675L93.2366 11.1852C93.2769 11.3427 93.3315 11.4962 93.3996 11.6438C93.5368 11.9421 93.7345 12.2086 93.9802 12.4264C94.2236 12.6403 94.5034 12.8087 94.8064 12.9235C94.9556 12.9815 95.1089 13.0283 95.265 13.0633C95.344 13.0804 95.4179 13.0959 95.5025 13.1071C95.5843 13.118 95.6667 13.124 95.7493 13.125C95.9119 13.1257 96.0742 13.1094 96.2334 13.0763C96.391 13.044 96.5456 12.9983 96.6955 12.9398C97.0098 12.8126 97.2972 12.627 97.5424 12.3928C98.3698 11.5872 98.6898 9.80741 97.3582 8.81178Z" fill="url(#paint0_radial_10523_4700)"/>
<path d="M103.327 15.0941C103.327 15.0941 102.703 15.3221 101.602 16.1249C101.08 16.5055 100.796 17.2382 97.9573 16.2388C95.1185 15.2393 95.3584 13.3999 95.4384 12.2402C95.5184 11.0805 96.3581 11.6005 96.5579 10.521C96.7576 9.4416 95.2784 9.72133 95.1185 10.521C94.9585 11.3208 94.199 13.0399 95.1185 14.7593C96.0379 16.4787 97.2307 16.8385 98.9736 17.1582C100.716 17.4779 100.884 18.3714 101.692 19.2705C102.335 19.9856 103.289 20.5023 103.249 20.5023C103.208 20.5023 103.217 17.6677 103.327 15.0941Z" fill="#0AD960"/>
<path d="M129.607 16.3127C132.488 16.1509 133.967 15.2681 133.967 15.2681C133.967 15.2681 135.477 14.7018 136.605 13.7607C137.089 13.3564 137.07 13.5691 136.86 14.1617C136.593 14.9239 135.882 16.2212 133.607 17.9302C132.453 18.7964 131.063 19.5862 129.607 20.2781V16.3127Z" fill="#EC2224"/>
<path d="M109.397 14.7604C108.875 14.7418 108.673 14.7543 108.148 14.752C108.019 14.752 107.864 14.8598 107.808 15.0029C107.508 15.7978 107.198 16.5825 106.86 17.3611C106.812 17.4747 106.732 17.467 106.68 17.3448C106.349 16.5626 106.028 15.7652 105.63 15.0157C105.566 14.8921 105.4 14.7953 105.268 14.8045C104.729 14.8414 104.472 14.8684 104.045 14.9556C103.94 14.977 103.86 15.0903 103.859 15.1833C103.845 16.9463 103.855 18.7098 103.855 20.4728C103.855 20.6019 103.952 20.7652 104.074 20.8338C104.4 21.0203 104.736 21.1904 105.079 21.3433C105.206 21.4016 105.314 21.3178 105.317 21.1522C105.337 20.0888 105.341 19.0805 105.37 17.8683C105.378 17.8054 105.429 17.8028 105.483 17.8714C105.931 18.6456 106.028 18.7969 106.483 19.6522C106.55 19.7796 106.659 19.8945 106.724 19.9092C106.789 19.924 106.885 19.8583 106.939 19.7627C107.39 19.07 107.499 18.8374 107.929 18.2104C107.994 18.1154 108.041 18.1307 108.035 18.2466C108.029 19.5946 108.052 20.7744 108.044 22.0156C108.044 22.1955 108.149 22.3468 108.28 22.3723C108.731 22.4602 108.951 22.4849 109.397 22.544C109.526 22.5613 109.636 22.4559 109.641 22.2831C109.706 19.8705 109.648 17.478 109.633 15.0682C109.632 14.8954 109.526 14.765 109.397 14.7604Z" fill="#EC2224"/>
<path d="M116.253 20.3377C116.185 20.2197 116.21 20.059 116.309 19.9836C116.309 19.9836 116.675 19.6977 116.845 19.4053C117.033 19.0822 117.128 18.6718 117.13 18.1403C117.13 17.7511 117.065 17.427 116.931 17.1289C116.803 16.8368 116.625 16.5695 116.405 16.3391C116.193 16.1223 115.966 15.9657 115.73 15.8704C115.503 15.7787 115.148 15.6974 115.148 15.6974C115.021 15.6683 114.816 15.6253 114.69 15.6016C113.933 15.4599 113.521 15.3787 112.748 15.2396C112.619 15.2164 112.514 15.3196 112.516 15.4831C112.533 17.9116 112.552 20.3278 112.533 22.7585C112.532 22.9164 112.635 23.0418 112.766 23.0576C113.21 23.1124 113.432 23.1386 113.876 23.1867C114.005 23.2005 114.11 23.0968 114.109 22.9391C114.105 21.971 114.104 21.5241 114.109 20.6404C114.109 20.4962 114.213 20.3917 114.339 20.4047C114.464 20.4177 114.622 20.5321 114.688 20.6595C115.104 21.4635 115.511 22.2627 115.896 23.082C115.963 23.2153 116.123 23.3177 116.252 23.3174C116.837 23.3162 117.128 23.306 117.711 23.2813C117.838 23.2757 117.889 23.1829 117.821 23.0724C117.281 22.1718 116.768 21.2538 116.253 20.3377ZM115.442 18.5531C115.404 18.6501 115.341 18.7357 115.261 18.8017C115.172 18.8745 115.061 18.915 114.946 18.9169C114.847 18.9199 114.749 18.9164 114.651 18.9064C114.52 18.8922 114.342 18.87 114.258 18.8583C114.174 18.8465 114.105 18.7217 114.105 18.5892C114.105 18.1347 114.105 17.8759 114.105 17.3918C114.105 17.2515 114.192 17.1513 114.299 17.1643C114.406 17.1773 114.596 17.2043 114.724 17.2255C114.724 17.2255 114.79 17.2357 114.91 17.265C115.011 17.2883 115.107 17.3307 115.192 17.3901C115.296 17.461 115.377 17.5614 115.424 17.6784C115.474 17.8184 115.499 17.9665 115.496 18.1154C115.498 18.3082 115.479 18.4547 115.441 18.5531H115.442Z" fill="#EC2224"/>
<path d="M111.647 15.0598C111.202 14.9915 110.981 14.9612 110.536 14.9151C110.409 14.9018 110.304 15.021 110.307 15.1973C110.33 17.6176 110.41 20.001 110.32 22.4268C110.314 22.5955 110.415 22.727 110.544 22.7443C110.992 22.8047 111.216 22.835 111.663 22.8938C111.792 22.9106 111.901 22.8118 111.904 22.6523C111.949 20.2203 111.906 17.8179 111.885 15.3915C111.882 15.2218 111.776 15.0794 111.647 15.0598Z" fill="#EC2224"/>
<path d="M128.788 16.3323C128.353 16.3524 128.211 16.3749 127.776 16.4268C127.651 16.4419 127.547 16.5568 127.547 16.661C127.531 18.1539 127.544 19.4601 127.544 20.95C127.544 21.1398 127.703 21.2027 127.829 21.1525C128.268 20.9785 128.352 20.9102 128.788 20.7247C128.914 20.6712 129.017 20.5803 129.017 20.336V16.4913C129.016 16.4098 128.914 16.3265 128.788 16.3323Z" fill="#EC2224"/>
<path d="M126.878 16.6075C126.878 16.4967 126.774 16.4037 126.644 16.4223C126.197 16.486 125.973 16.5204 125.526 16.5752C125.397 16.5912 125.291 16.7064 125.29 16.8164C125.289 17.4893 125.288 17.861 125.287 18.3595C125.287 18.4413 125.182 18.5341 125.054 18.5534C124.53 18.6334 124.258 18.6696 123.731 18.7279C123.604 18.7422 123.498 18.662 123.498 18.5588C123.498 17.9277 123.496 17.5588 123.496 16.9013C123.496 16.7938 123.39 16.6962 123.261 16.6959C122.813 16.6959 122.553 16.6959 122.104 16.6918C121.974 16.6918 121.904 16.8139 121.904 16.9224C121.911 18.8495 121.908 20.1638 121.904 22.6037C121.904 22.6954 122.009 22.7922 122.131 22.7667C122.556 22.6781 122.837 22.6806 123.271 22.5762C123.396 22.5459 123.501 22.432 123.501 22.3505C123.503 21.7273 123.501 21.4239 123.49 20.4336C123.49 20.3042 123.598 20.1921 123.73 20.1788C124.269 20.1248 124.519 20.0963 125.039 20.0244C125.166 20.0071 125.264 20.1042 125.265 20.2321C125.276 21.2127 125.28 21.3393 125.272 21.8738C125.272 21.9436 125.375 21.9945 125.504 21.9525C125.952 21.806 126.178 21.727 126.629 21.5612C126.759 21.5133 126.867 21.3971 126.869 21.3429C126.903 19.7697 126.863 18.1855 126.878 16.6075Z" fill="#EC2224"/>
<path d="M120.702 21.8263C120.415 21.9537 120.209 21.9484 119.909 21.8263C119.747 21.757 119.606 21.6483 119.497 21.5102C119.374 21.3619 119.27 21.1512 119.188 20.885C119.106 20.6188 119.061 20.2723 119.061 19.8626C119.059 19.47 119.098 19.1386 119.176 18.8764C119.255 18.6143 119.355 18.4056 119.476 18.2515C119.601 18.0922 119.739 17.9758 119.885 17.9068C120.093 17.8087 120.493 17.7931 121.108 17.9717C121.204 17.9995 121.296 17.9845 121.353 17.9134C121.396 17.8624 121.404 17.7116 121.404 17.7116V16.9142C121.406 16.8622 121.392 16.8109 121.366 16.7659C121.324 16.705 121.271 16.676 121.2 16.6472C121.177 16.6378 121.153 16.6284 121.129 16.6194C120.985 16.5647 120.285 16.4034 120.073 16.3807C119.613 16.3313 119.4 16.3675 119.057 16.4915C118.715 16.6156 118.436 16.8378 118.223 17.1443C117.989 17.4819 117.815 17.8569 117.708 18.253C117.586 18.6836 117.527 19.1702 117.529 19.7368C117.534 20.3456 117.597 20.8641 117.721 21.325C117.846 21.7899 118.026 22.1858 118.259 22.4857C118.474 22.7696 118.764 22.9882 119.096 23.117C119.418 23.2444 119.759 23.2989 120.166 23.2597C120.443 23.2342 120.644 23.1904 120.794 23.1366C120.95 23.0789 121.102 23.0116 121.25 22.9351C121.304 22.9086 121.35 22.8674 121.381 22.8164C121.405 22.7766 121.409 22.7022 121.412 22.5901C121.418 22.3537 121.419 22.0719 121.402 21.9061C121.395 21.8483 121.378 21.7415 121.305 21.6926C121.241 21.6503 121.144 21.6368 120.989 21.7007C120.895 21.7405 120.792 21.7861 120.702 21.8263Z" fill="#EC2224"/>
<defs>
<radialGradient id="paint0_radial_10523_4700" cx="0" cy="0" r="1" gradientUnits="userSpaceOnUse" gradientTransform="translate(95.7058 10.4186) scale(2.63122 2.63122)">
<stop stop-color="#EB2528"/>
<stop offset="0.03" stop-color="#EE4B26"/>
<stop offset="0.06" stop-color="#F06D25"/>
<stop offset="0.1" stop-color="#F18924"/>
<stop offset="0.14" stop-color="#F3A023"/>
<stop offset="0.18" stop-color="#F4B222"/>
<stop offset="0.23" stop-color="#F4BF21"/>
<stop offset="0.3" stop-color="#F5C621"/>
<stop offset="0.47" stop-color="#F5C821"/>
<stop offset="0.64" stop-color="#F18824"/>
<stop offset="0.81" stop-color="#EE5026"/>
<stop offset="0.93" stop-color="#EC2D27"/>
<stop offset="1" stop-color="#EB2028"/>
</radialGradient>
</defs>
</svg>
