<svg width="40" height="40" viewBox="0 0 40 40" fill="none" xmlns="http://www.w3.org/2000/svg">
<rect x="7" y="8" width="26" height="25" fill="white"/>
<path fill-rule="evenodd" clip-rule="evenodd" d="M40 20C40 31.0457 31.0457 40 20 40C8.9543 40 0 31.0457 0 20C0 8.9543 8.9543 0 20 0C31.0457 0 40 8.9543 40 20ZM29.3335 14.0638C30.3294 13.9446 31.279 13.6806 32.1613 13.2886C31.5013 14.2759 30.6662 15.143 29.7031 15.839C29.7135 16.0494 29.7175 16.2621 29.7175 16.4757C29.7175 22.9817 24.765 30.4844 15.7088 30.4844C12.9282 30.4844 10.3404 29.6685 8.16127 28.2717C8.54607 28.3181 8.93797 28.3413 9.33637 28.3413C11.6435 28.3413 13.7665 27.5534 15.4512 26.2335C13.297 26.1935 11.4779 24.7696 10.8515 22.8137C11.1523 22.8713 11.4611 22.9025 11.7787 22.9025C12.2274 22.9025 12.6626 22.8417 13.0754 22.7297C10.8243 22.2761 9.12597 20.2867 9.12597 17.9004V17.8388C9.79077 18.2076 10.5491 18.4292 11.3571 18.4548C10.0348 17.5717 9.16677 16.0646 9.16677 14.3567C9.16677 13.4543 9.40917 12.6088 9.83317 11.8815C12.2618 14.8605 15.8896 16.8213 19.9821 17.0261C19.8981 16.6653 19.8541 16.2893 19.8541 15.9038C19.8541 13.1848 22.0588 10.9801 24.7778 10.9801C26.1929 10.9801 27.4736 11.5785 28.372 12.5352C29.4927 12.3136 30.5478 11.9047 31.4981 11.34C31.131 12.4895 30.3502 13.4542 29.3335 14.0638Z" fill="#1D9BF0"/>
</svg>
