<svg width="40" height="41" viewBox="0 0 40 41" fill="none" xmlns="http://www.w3.org/2000/svg">
<rect x="6" y="9" width="26" height="25" fill="white"/>
<path d="M20 0.800781C8.95313 0.800781 0 9.75391 0 20.8008C0 31.8477 8.95313 40.8008 20 40.8008C31.0469 40.8008 40 31.8477 40 20.8008C40 9.75391 31.0469 0.800781 20 0.800781ZM24.4141 17.4102L24.1875 20.4023H21.1172V30.793H17.2422V20.4023H15.1719V17.4102H17.2422V15.4023C17.2422 14.5195 17.2656 13.1523 17.9062 12.3008C18.5859 11.4023 19.5156 10.793 21.1172 10.793C23.7266 10.793 24.8203 11.168 24.8203 11.168L24.3047 14.2305C24.3047 14.2305 23.4453 13.9805 22.6406 13.9805C21.8359 13.9805 21.1172 14.2695 21.1172 15.0742V17.4102H24.4141Z" fill="#316FF6"/>
</svg>
